<svg xmlns="http://www.w3.org/2000/svg" xmlns:xlink="http://www.w3.org/1999/xlink" version="1.1" x="0px" y="0px" viewBox="0 0 100 125" style="enable-background:new 0 0 100 100;" xml:space="preserve"><g><path d="M90.3,47.9c-1.8,0-2.8,0.7-3.6,1.4c-0.7,0.5-1.2,0.9-2.4,0.9s-1.7-0.4-2.4-0.9c-0.8-0.6-1.8-1.4-3.6-1.4   c-1.8,0-2.8,0.7-3.6,1.4c-0.7,0.5-1.2,0.9-2.4,0.9c-1.1,0-1.7-0.4-2.4-0.9c-0.8-0.6-1.8-1.4-3.6-1.4c-1.8,0-2.8,0.7-3.6,1.4   c-0.7,0.5-1.2,0.9-2.4,0.9s-1.7-0.4-2.4-0.9c-0.8-0.6-1.8-1.4-3.6-1.4s-2.8,0.7-3.6,1.4c-0.7,0.5-1.2,0.9-2.4,0.9   c-1.1,0-1.7-0.4-2.4-0.9c-0.8-0.6-1.8-1.4-3.6-1.4c-1.8,0-2.8,0.7-3.6,1.4c-0.7,0.5-1.2,0.9-2.4,0.9c-1.1,0-1.7-0.4-2.4-0.9   c-0.8-0.6-1.8-1.4-3.6-1.4c-1.8,0-2.8,0.7-3.6,1.4c-0.7,0.5-1.2,0.9-2.4,0.9s-1.7-0.4-2.4-0.9c-0.8-0.6-1.8-1.4-3.6-1.4   s-2.8,0.7-3.6,1.4c-0.7,0.5-1.2,0.9-2.4,0.9c-1.1,0-1.7-0.4-2.4-0.9c-0.8-0.6-1.8-1.4-3.6-1.4c-0.6,0-1,0.4-1,1s0.4,1,1,1   c1.1,0,1.7,0.4,2.4,0.9c0.8,0.6,1.8,1.4,3.6,1.4c1.8,0,2.8-0.7,3.6-1.4c0.7-0.5,1.2-0.9,2.4-0.9s1.7,0.4,2.4,0.9   c0.8,0.6,1.8,1.4,3.6,1.4s2.8-0.7,3.6-1.4c0.7-0.5,1.2-0.9,2.4-0.9c1.1,0,1.7,0.4,2.4,0.9c0.8,0.6,1.8,1.4,3.6,1.4   c1.8,0,2.8-0.7,3.6-1.4c0.7-0.5,1.2-0.9,2.4-0.9c1.1,0,1.7,0.4,2.4,0.9c0.8,0.6,1.8,1.4,3.6,1.4s2.8-0.7,3.6-1.4   c0.7-0.5,1.2-0.9,2.4-0.9s1.7,0.4,2.4,0.9c0.8,0.6,1.8,1.4,3.6,1.4s2.8-0.7,3.6-1.4c0.7-0.5,1.2-0.9,2.4-0.9c1.1,0,1.7,0.4,2.4,0.9   c0.8,0.6,1.8,1.4,3.6,1.4c1.8,0,2.8-0.7,3.6-1.4c0.7-0.5,1.2-0.9,2.4-0.9c1.2,0,1.7,0.4,2.4,0.9c0.8,0.6,1.8,1.4,3.6,1.4   s2.8-0.7,3.6-1.4c0.7-0.5,1.2-0.9,2.4-0.9c0.6,0,1-0.4,1-1S90.8,47.9,90.3,47.9z"/></g><text x="0" y="115" fill="#000000" font-size="5px" font-weight="bold" font-family="'Helvetica Neue', Helvetica, Arial-Unicode, Arial, Sans-serif"></text><text x="0" y="120" fill="#000000" font-size="5px" font-weight="bold" font-family="'Helvetica Neue', Helvetica, Arial-Unicode, Arial, Sans-serif"></text></svg>